<svg width="179" height="157" viewBox="0 0 179 157" fill="none" xmlns="http://www.w3.org/2000/svg">
<path fill-rule="evenodd" clip-rule="evenodd" d="M43.0269 16.1186C28.1366 24.269 15.5169 36.5794 9.47769 52.2814C3.40704 68.065 2.85785 89.6271 10.198 108.573C17.5054 127.434 32.5961 143.643 57.8653 149.058C69.4516 151.54 97.4949 154.865 123.217 148.522C136.055 145.357 148.187 139.814 157.43 130.681C166.639 121.583 173.109 108.795 174.451 90.864C175.892 71.6055 167.197 51.0103 151.76 34.7478C136.343 18.5055 114.343 6.74679 89.4752 5.05947C74.9207 4.07194 57.923 7.96502 43.0269 16.1186ZM41.1063 12.6098C56.5973 4.13062 74.3494 0.0239833 89.746 1.06865C115.713 2.83049 138.623 15.0982 154.661 31.994C170.68 48.8697 179.984 70.5245 178.44 91.1625C177.032 109.981 170.19 123.698 160.242 133.527C150.329 143.322 137.462 149.13 124.175 152.406C97.6473 158.947 68.941 155.522 57.0272 152.969C30.275 147.236 14.1981 129.97 6.46815 110.018C-1.22896 90.1508 -0.685041 67.5617 5.74431 50.8454C12.2051 34.0475 25.6096 21.0921 41.1063 12.6098Z" fill="#E6B571"/>
</svg>
