<svg width="174" height="151" viewBox="0 0 174 151" fill="none" xmlns="http://www.w3.org/2000/svg">
<path fill-rule="evenodd" clip-rule="evenodd" d="M43.9996 15.4696C29.1123 23.5087 16.5139 35.5894 10.4785 51.2813C4.35291 67.2078 2.05144 87.9551 7.5785 105.984C13.0639 123.878 26.2721 139.195 51.531 144.608C68.7764 148.303 98.2275 144.912 123.527 134.321C148.911 123.695 169.137 106.27 169.612 82.5234C169.998 63.2189 160.21 43.9709 145.201 29.3064C130.197 14.6452 110.198 4.79046 90.5374 4.06266C75.9144 3.52134 58.8912 7.4282 43.9996 15.4696ZM42.099 11.95C57.5823 3.58905 75.309 -0.503808 90.6854 0.0653952C111.525 0.836838 132.427 11.2318 147.997 26.4454C163.564 41.6558 174.025 61.9078 173.611 82.6034C173.086 108.856 150.813 127.235 125.072 138.011C99.2463 148.822 68.9476 152.431 50.6929 148.519C23.9303 142.784 9.6385 126.352 3.75416 107.157C-2.08849 88.0979 0.3707 66.4188 6.74511 49.8454C13.2097 33.0374 26.6114 20.3132 42.099 11.95Z" fill="#E6B571"/>
</svg>
