<?xml version="1.0" encoding="utf-8"?>
<!-- Generator: Adobe Illustrator 26.0.3, SVG Export Plug-In . SVG Version: 6.00 Build 0)  -->
<svg version="1.1" id="Layer_1" xmlns="http://www.w3.org/2000/svg" xmlns:xlink="http://www.w3.org/1999/xlink" x="0px" y="0px"
	 viewBox="0 0 281.983 46" style="enable-background:new 0 0 281.983 46;" xml:space="preserve">
<path style="fill:#FFFFFF;" d="M60.571,22.619v-0.622c2.609-1.314,4.531-3.113,4.531-6.987c0-4.635-2.883-9.131-13.169-9.131h-1.51
	V0h-7.479v5.879H31.558v4.57c-1.988-3.39-5.83-5.05-10.7-5.539V0h-7.476v4.912C5.152,5.742,0.898,9.62,0.898,15.633
	c0,8.438,7.414,9.546,13.924,10.653l4.321,0.692c3.636,0.554,4.668,1.729,4.668,3.251c0,2.006-2.334,3.462-7.002,3.39
	c-5.145-0.069-7.408-1.73-7.545-4.358H0.007c-0.206,7.817,4.256,11.551,13.306,12.382V46h7.552v-4.358
	c5.008-0.485,8.575-1.869,10.7-4.154V40.6h11.386v5.331h7.476V40.6h1.098c10.563,0,14.473-4.154,14.473-9.823
	C66.059,26.84,64.001,24.279,60.571,22.619z M41.914,13.904h9.054c3.021,0,4.256,1.385,4.256,3.046c0,1.73-1.236,2.974-4.256,2.974
	h-9.054V13.904z M18.389,19.922l-3.636-0.692c-2.949-0.483-3.909-1.728-3.909-3.113c0-1.939,1.852-3.25,5.904-3.25
	c4.668,0,6.728,1.662,7.201,4.293h7.682v6.986C28.478,21.167,22.916,20.683,18.389,19.922z M51.311,32.719h-9.397v-6.849h9.397
	c3.021,0,4.321,1.523,4.321,3.323C55.632,30.92,54.329,32.719,51.311,32.719z"/>
<g>
	<path style="fill:#D2D1D7;" d="M85.129,25.618h5.03c0.061,1.151,1.03,1.858,3.455,1.879c2.142,0.02,3.131-0.586,3.131-1.374
		c0-0.546-0.303-1.111-1.959-1.354l-2.182-0.344c-3.212-0.525-7.071-0.909-7.071-5.252c0-3.354,2.728-5.415,8.122-5.415
		c4.869,0,8.263,1.354,8.162,6.203h-4.99c-0.202-1.131-1.152-1.838-3.293-1.838c-1.859,0-2.626,0.565-2.626,1.333
		c0,0.485,0.303,1.071,1.596,1.273l1.798,0.303c3.374,0.565,8,0.667,8,5.313c0,3.696-2.869,5.535-8.687,5.515
		C87.755,31.841,84.988,30.022,85.129,25.618z"/>
	<path style="fill:#D2D1D7;" d="M102.464,14.325h5.677l1.818,10.99h0.485l2.424-10.99h4.444l2.424,10.99h0.485l1.818-10.99h5.677
		l-3.293,16.97h-7.556l-1.536-8.162h-0.485l-1.535,8.162h-7.556L102.464,14.325z"/>
	<path style="fill:#D2D1D7;" d="M139.396,29.053h-7.273l-0.748,2.242h-5.778l6.243-16.97h7.838l6.243,16.97h-5.778L139.396,29.053z
		 M138.022,24.911l-1.778-5.334h-0.97l-1.777,5.334H138.022z"/>
	<path style="fill:#D2D1D7;" d="M163.378,31.295h-2.99l-0.081-2.242c-1.172,1.616-3.293,2.808-6.283,2.808
		c-5.212,0-9.212-3.616-9.212-9.051c0-5.434,3.798-9.051,9.697-9.051c4.021,0,8.121,1.939,8.788,6.505h-5.556
		c-0.344-0.848-1.455-1.677-3.111-1.677c-2.505,0-4.263,1.657-4.263,4.222c0,2.566,1.798,4.223,4.101,4.223
		c0.829,0,2.95-0.223,3.516-2.202h-3.737v-2.909h9.132V31.295z"/>
	<path style="fill:#D2D1D7;" d="M177.885,29.053h-7.273l-0.747,2.242h-5.778l6.243-16.97h7.839l6.242,16.97h-5.778L177.885,29.053z
		 M176.511,24.911l-1.777-5.334h-0.97l-1.778,5.334H176.511z"/>
	<path style="fill:#D2D1D7;" d="M207.927,26.507c0,2.728-1.919,4.788-7.232,4.788h-10.223v-16.97h10.506
		c5.131,0,6.505,2.263,6.505,4.505c0,1.919-0.99,2.748-2.182,3.394v0.323C206.937,23.375,207.927,24.567,207.927,26.507z
		 M196.068,18.607v2.546h4.323c1.312,0,1.737-0.646,1.737-1.253c0-0.646-0.425-1.293-1.737-1.293H196.068z M202.271,25.577
		c0-0.646-0.445-1.374-1.758-1.374h-4.444v2.808h4.444C201.825,27.012,202.271,26.204,202.271,25.577z"/>
	<path style="fill:#D2D1D7;" d="M209.14,14.325h15.294v4.485h-9.697v2.162h9.333v3.677h-9.333v2.161h9.697v4.485H209.14V14.325z"/>
	<path style="fill:#D2D1D7;" d="M238.737,29.053h-7.272l-0.748,2.242h-5.778l6.243-16.97h7.839l6.242,16.97h-5.778L238.737,29.053z
		 M237.363,24.911l-1.777-5.334h-0.97l-1.778,5.334H237.363z"/>
	<path style="fill:#D2D1D7;" d="M258.214,31.295l-2.303-4.384h-4.243v4.384h-5.596v-16.97h9.718c4.707,0,7.354,2.02,7.354,6.485
		c0,2.283-1.03,3.899-2.465,4.909l3.03,5.576H258.214z M251.668,22.729h3.738c1.414,0,2.142-0.687,2.142-1.879
		s-0.728-1.879-2.142-1.879h-3.738V22.729z"/>
	<path style="fill:#D2D1D7;" d="M263.811,25.618h5.031c0.061,1.151,1.03,1.858,3.454,1.879c2.142,0.02,3.132-0.586,3.132-1.374
		c0-0.546-0.304-1.111-1.96-1.354l-2.182-0.344c-3.213-0.525-7.071-0.909-7.071-5.252c0-3.354,2.728-5.415,8.121-5.415
		c4.869,0,8.264,1.354,8.162,6.203h-4.99c-0.201-1.131-1.151-1.838-3.293-1.838c-1.858,0-2.626,0.565-2.626,1.333
		c0,0.485,0.303,1.071,1.596,1.273l1.798,0.303c3.374,0.565,8.001,0.667,8.001,5.313c0,3.696-2.869,5.535-8.688,5.515
		C266.438,31.841,263.67,30.022,263.811,25.618z"/>
</g>
</svg>
