<svg width="185" height="155" viewBox="0 0 185 155" fill="none" xmlns="http://www.w3.org/2000/svg">
<path fill-rule="evenodd" clip-rule="evenodd" d="M83.0361 4.63836C49.3963 6.15327 17.142 29.8861 6.87402 67.0458C-3.26201 103.728 21.7576 145.478 73.5973 150.593C85.1796 151.736 111.841 148.791 135.751 138.009C159.641 127.236 180.197 108.942 180.895 79.6556C181.35 60.5102 169.583 41.2138 151.138 26.8932C132.729 12.6 107.962 3.51587 83.0361 4.63836ZM3.0185 65.9804C13.7509 27.1402 47.4971 2.23474 82.8562 0.642415C108.83 -0.52728 134.514 8.92165 153.591 23.7337C172.634 38.5185 185.39 58.8996 184.893 79.7508C184.143 111.275 161.911 130.6 137.396 141.655C112.901 152.701 85.5398 155.791 73.2046 154.574C19.1535 149.241 -7.84583 105.298 3.0185 65.9804Z" fill="#E6B571"/>
</svg>
