<svg width="66" height="46" viewBox="0 0 66 46" fill="none" xmlns="http://www.w3.org/2000/svg">
<path d="M60.5711 22.6192V21.9975C63.1799 20.6834 65.1021 18.8846 65.1021 15.0102C65.1021 10.3756 62.2188 5.87947 51.9334 5.87947H50.4231V0H42.9442V5.87947H31.5576V10.449C29.5695 7.05924 25.7278 5.39898 20.8576 4.91018V0H13.3815V4.91156C5.15155 5.74238 0.89791 9.61957 0.89791 15.6334C0.89791 24.0718 8.31226 25.1795 14.8218 26.2859L19.1427 26.9783C22.7785 27.5321 23.811 28.7078 23.811 30.2296C23.811 32.236 21.4769 33.6913 16.8086 33.6193C11.6638 33.5501 9.40108 31.8898 9.26377 29.2616H0.00681554C-0.199139 37.0783 4.2632 40.8129 13.3128 41.6437V46H20.8645V41.6423C25.8724 41.1577 29.4391 39.773 31.5645 37.4882V40.5996H42.951V45.9308H50.4272V40.5996H51.5256C62.0883 40.5996 65.9987 36.4455 65.9987 30.7765C66.0591 26.8398 64.0009 24.2795 60.5711 22.6192ZM41.9144 13.9039H50.9682C53.9888 13.9039 55.2246 15.2886 55.2246 16.9502C55.2246 18.6797 53.9888 19.9246 50.9682 19.9246H41.9144V13.9039ZM18.3889 19.9218L14.7531 19.2294C11.8039 18.7462 10.8441 17.5013 10.8441 16.1166C10.8441 14.178 12.6963 12.8667 16.7482 12.8667C21.4165 12.8667 23.476 14.5284 23.9497 17.1593H31.6318V24.1452C28.4779 21.1666 22.9158 20.6834 18.3889 19.9218ZM51.3114 32.7193H41.9144V25.8705H51.3114C54.3321 25.8705 55.6323 27.3937 55.6323 29.1938C55.6323 30.9205 54.3293 32.7193 51.3114 32.7193Z" fill="white"/>
</svg>
