<svg width="195" height="461" viewBox="0 0 195 461" fill="none" xmlns="http://www.w3.org/2000/svg">
<path d="M225.633 447.045C226.778 446.651 227.883 446.237 229.008 445.824L228.573 444.642C226.225 445.528 223.877 446.356 221.509 447.163L221.903 448.345C223.14 447.938 224.383 447.505 225.633 447.045ZM236.013 443.106C238.342 442.141 240.67 441.136 242.94 440.092L242.407 438.95C240.157 439.974 237.848 440.92 235.54 441.944L236.013 443.106ZM214.7 450.669L214.345 449.467C211.977 450.177 209.53 450.846 207.123 451.437L207.438 452.638C209.866 451.929 212.313 451.319 214.7 450.61V450.669ZM249.728 436.882C251.978 435.759 254.228 434.598 256.418 433.396L255.826 432.293C253.636 433.495 251.406 434.657 249.176 435.779L249.728 436.882ZM200.097 454.49L199.841 453.269C197.413 453.8 194.927 454.293 192.48 454.746L192.697 455.967C195.164 455.415 197.65 454.903 200.097 454.372V454.49ZM262.99 429.674C265.141 428.413 267.292 427.074 269.403 425.735L268.732 424.671C266.641 426.03 264.49 427.33 262.339 428.61L262.99 429.674ZM185.257 457.247L185.08 456.006C182.613 456.361 180.107 456.676 177.64 456.932L177.758 458.173C180.264 457.838 182.79 457.424 185.257 457.07V457.247ZM275.699 421.441C277.672 420.023 279.823 418.546 281.816 417.069L281.086 416.064C279.112 417.541 277.139 418.999 274.968 420.417L275.699 421.441ZM170.259 458.645V457.405C167.773 457.562 165.247 457.68 162.78 457.74V459C165.207 458.921 167.733 458.803 170.259 458.645ZM287.796 412.539C289.769 410.983 291.742 409.368 293.617 407.733L292.788 406.788C290.815 408.403 288.96 410.018 287.026 411.574L287.796 412.539ZM155.143 459.079V457.818C152.653 457.728 150.169 457.504 147.703 457.149L147.526 458.389C149.913 458.646 152.459 458.882 155.143 459V459.079ZM299.202 402.73C301.037 401.037 302.872 399.284 304.648 397.531L303.76 396.625C302.004 398.378 300.188 400.131 298.353 401.805L299.202 402.73ZM140.125 456.696L140.5 455.514C138.149 454.786 135.891 453.788 133.771 452.54L133.12 453.623C135.345 454.887 137.709 455.892 140.165 456.617L140.125 456.696ZM309.838 392.115C311.536 390.303 313.233 388.412 314.89 386.541L313.943 385.714C312.305 387.585 310.608 389.456 308.911 391.268L309.838 392.115ZM319.706 380.75C321.284 378.781 322.843 376.811 324.343 374.842L323.337 374.093C321.837 376.063 320.298 378.032 318.739 380.002L319.706 380.75ZM127.298 448.68L128.245 447.833C127.772 447.321 127.357 446.789 126.943 446.257C125.908 444.838 125.053 443.297 124.397 441.668L123.233 442.141C123.933 443.86 124.841 445.487 125.936 446.986C126.361 447.573 126.816 448.138 127.298 448.68ZM328.862 368.618C329.908 367.102 330.954 365.546 331.96 363.99L330.895 363.3C329.908 364.856 328.921 366.392 327.836 367.889L328.862 368.618ZM122.621 434.578C122.417 432.128 122.496 429.663 122.858 427.231L121.615 427.054C121.244 429.584 121.164 432.148 121.378 434.696L122.621 434.578ZM124.595 420.082C125.422 417.751 126.452 415.497 127.673 413.346L126.568 412.736C125.317 414.951 124.26 417.271 123.411 419.668L124.595 420.082ZM131.758 407.142C133.12 405.311 134.659 403.42 136.474 401.371L135.527 400.544C133.692 402.632 132.133 404.483 130.752 406.453L131.758 407.142ZM141.625 395.876L143.914 393.474C144.881 392.469 145.888 391.504 146.835 390.441L145.907 389.574L143.006 392.607L140.717 395.01L141.625 395.876ZM151.847 384.965C153.584 382.996 155.163 381.026 156.544 379.057L155.538 378.328C154.156 380.297 152.597 382.267 150.9 384.236L151.847 384.965ZM160.609 372.616C161.845 370.398 162.888 368.079 163.727 365.683L162.543 365.27C161.718 367.601 160.702 369.861 159.504 372.025L160.609 372.616ZM165.464 358.258C165.644 356.828 165.716 355.386 165.681 353.945C165.664 352.831 165.578 351.72 165.424 350.617L164.181 350.774C164.325 351.832 164.41 352.897 164.438 353.965C164.453 355.347 164.381 356.728 164.221 358.101L165.464 358.258ZM162.267 343.703L163.431 343.231C162.453 340.866 161.188 338.63 159.662 336.574L158.656 337.322C160.121 339.255 161.334 341.367 162.267 343.605V343.703ZM153.544 332.064L154.334 331.079C152.324 329.505 150.154 328.145 147.861 327.021L147.308 328.144C149.518 329.191 151.609 330.472 153.544 331.965V332.064ZM140.402 325.485L140.757 324.284C138.323 323.574 135.853 322.996 133.356 322.551L133.139 323.791C135.587 324.191 138.012 324.724 140.402 325.387V325.485ZM125.739 322.728L125.877 321.487C123.292 321.192 120.746 320.955 118.358 320.758L118.26 322.019C120.628 322.117 123.174 322.334 125.739 322.629V322.728ZM110.761 321.349L110.879 320.108C108.334 319.852 105.827 319.577 103.42 319.281L103.262 320.522C105.591 320.719 108.195 320.995 110.761 321.251V321.349ZM95.7828 319.498L95.9801 318.257C93.4344 317.883 90.9479 317.469 88.5798 317.016L88.343 318.237C90.7308 318.592 93.237 319.025 95.7235 319.399L95.7828 319.498ZM80.9625 316.721L81.2387 315.5C78.7522 314.929 76.3051 314.318 73.9568 313.688L73.6213 314.889C75.9894 315.441 78.4562 316.031 80.9625 316.622V316.721ZM66.3987 312.782L66.7934 311.6C64.3858 310.812 62.0178 309.946 59.7681 309.059L59.2943 310.221C61.5835 310.95 63.9714 311.817 66.3987 312.605V312.782ZM52.3678 307.208L52.9005 306.085C50.6311 305.002 48.4012 303.84 46.2896 302.639L45.6581 303.722C47.7894 304.766 50.0588 305.928 52.3085 307.031L52.3678 307.208ZM39.2446 299.704L39.9747 298.66C37.9249 297.259 35.9489 295.754 34.0545 294.15L33.2455 295.115C35.1202 296.533 37.1527 298.069 39.2446 299.527V299.704ZM27.6606 289.975L28.5487 289.108C26.8116 287.339 25.1712 285.479 23.6348 283.534L22.6481 284.302C24.2177 286.224 25.891 288.058 27.6606 289.797V289.975ZM18.2475 278.157L19.3132 277.488C18.0107 275.518 16.7675 273.273 15.6031 271.028L14.498 271.579C15.6423 273.766 16.8936 275.896 18.2475 277.96V278.157ZM11.3208 264.725L12.4851 264.252C11.8339 262.657 11.2024 261.003 10.5117 259.309C10.2552 258.62 10.0184 257.95 9.78156 257.339L8.59744 257.733C8.83426 258.423 9.07108 259.112 9.32761 259.801C10.0183 261.239 10.6696 262.854 11.3208 264.528V264.725ZM7.68976 250.111C7.05826 247.807 6.44644 245.365 5.87415 242.844L4.65063 243.119C5.22293 245.66 5.85452 248.122 6.48602 250.446L7.68976 250.111ZM4.35471 235.281C3.88107 232.72 3.4863 230.239 3.17056 227.895L1.92731 228.072C2.24304 230.436 2.63785 232.937 3.1312 235.517L4.35471 235.281ZM2.38129 220.47C2.20367 217.909 2.12479 215.408 2.16425 213.025H0.999878C0.999878 215.447 0.999847 217.988 1.19717 220.568L2.38129 220.47ZM2.63785 205.6C2.93027 203.141 3.36508 200.701 3.94025 198.293L2.73648 197.997C2.13077 200.448 1.68259 202.935 1.39459 205.442L2.63785 205.6ZM6.18994 191.222C6.38727 190.69 6.62415 190.178 6.84122 189.646C7.60779 187.9 8.47083 186.197 9.42636 184.545L8.34091 183.935C7.35004 185.617 6.46689 187.36 5.69659 189.154C5.45978 189.686 5.24265 190.218 5.02557 190.749L6.18994 191.222ZM154.196 136.39C156.544 135.504 158.892 134.539 161.182 133.515L160.668 132.372C158.399 133.397 156.07 134.342 153.742 135.228L154.196 136.39ZM147.052 138.852L146.677 137.67C144.309 138.399 141.882 139.089 139.474 139.64L139.77 140.841C142.158 140.329 144.605 139.64 147.032 138.892L147.052 138.852ZM167.99 130.245C169.647 129.398 171.305 128.492 172.923 127.567L174.62 126.582L173.969 125.518L172.292 126.484C170.693 127.409 169.055 128.295 167.418 129.142L167.99 130.245ZM132.468 142.535L132.232 141.314C129.883 141.767 127.397 142.2 124.851 142.594L125.029 143.835C127.495 143.481 130.002 143.047 132.35 142.575L132.468 142.535ZM117.431 144.879L117.273 143.638C114.984 143.894 112.537 144.17 109.814 144.426L109.932 145.686C112.695 145.411 115.142 145.155 117.431 144.879ZM180.777 122.308C182.784 120.735 184.622 118.959 186.264 117.01L185.316 116.203C183.724 118.083 181.946 119.799 180.008 121.323L180.777 122.308ZM13.61 178.459C15.1675 176.528 16.8344 174.687 18.6027 172.945L17.7146 172.059C15.8994 173.82 14.2051 175.702 12.643 177.691L13.61 178.459ZM102.413 146.376L102.295 145.115L94.7961 145.765L94.9145 147.026L102.413 146.376ZM87.4352 147.715L87.297 146.455C84.5737 146.73 82.107 146.986 79.8179 147.262L79.956 148.503C82.3044 148.227 84.7317 147.971 87.4747 147.715H87.4352ZM190.23 110.451C190.872 108.841 191.297 107.152 191.493 105.429C191.592 104.579 191.631 103.724 191.612 102.869H190.447C190.464 103.671 190.431 104.473 190.349 105.272C190.17 106.881 189.772 108.458 189.164 109.959L190.23 110.451ZM24.2072 168.08C26.1743 166.568 28.216 165.154 30.3247 163.846L29.6736 162.782C27.4831 164.141 25.3912 165.598 23.4375 167.095L24.2072 168.08ZM72.536 149.507L72.3387 148.267C70.0101 148.621 67.7406 148.995 65.5895 149.409L64.8989 149.547L65.1357 150.768L65.8263 150.63C67.9971 150.236 70.2469 149.842 72.5755 149.507H72.536ZM36.8369 160.202C39.0274 159.099 41.3166 158.075 43.6452 157.11L43.1716 155.948C40.8035 156.913 38.4947 157.917 36.2845 159.079L36.8369 160.202ZM57.8538 152.422L57.5381 151.221C55.0714 151.851 52.6242 152.56 50.2758 153.348L50.6706 154.53C53.0387 153.762 55.4463 153.052 57.8933 152.422H57.8538ZM188.868 95.7785L190.033 95.3452C189.107 92.9648 187.922 90.6928 186.5 88.57L185.454 89.2593C186.831 91.3058 187.988 93.4909 188.908 95.7785H188.868ZM180.975 83.3704L181.922 82.5432L181.646 82.2281C180.087 80.4555 178.429 78.7026 176.771 77.0285L175.883 77.9148C177.541 79.5692 179.159 81.3024 180.699 83.0552L180.975 83.3704ZM170.417 72.8137L171.246 71.8683C169.273 70.2139 167.299 68.6185 165.326 67.102L164.556 68.1065C166.608 69.6033 168.542 71.179 170.417 72.8137ZM158.577 63.7932L159.267 62.7493C157.156 61.3707 154.985 60.0511 152.795 58.8103L152.183 59.8936C154.294 61.1344 156.426 62.4342 158.517 63.7932H158.577Z" fill="white" fill-opacity="0.2"/>
<path fill-rule="evenodd" clip-rule="evenodd" d="M227.637 444.992C225.601 445.748 223.564 446.462 221.511 447.162C221.51 447.163 221.509 447.163 221.509 447.163L221.903 448.345C222.215 448.242 222.527 448.138 222.84 448.032M228.572 444.643C228.26 444.76 227.949 444.877 227.637 444.992L228.572 444.643ZM228.572 444.643C228.572 444.642 228.573 444.642 228.574 444.642L228.663 444.885L229.008 445.824C228.995 445.828 228.982 445.833 228.97 445.838C228.785 445.906 228.601 445.974 228.416 446.042C227.493 446.382 226.577 446.72 225.633 447.045C224.702 447.387 223.775 447.715 222.852 448.028M225.968 447.987C224.711 448.449 223.46 448.885 222.216 449.295L221.27 449.606L220.245 446.537L221.186 446.217C223.548 445.411 225.886 444.588 228.22 443.706L229.164 443.35L230.291 446.417L229.353 446.762C229.157 446.834 228.962 446.906 228.767 446.978C227.846 447.318 226.92 447.66 225.968 447.987ZM235.467 444.415L236.396 444.03C238.733 443.061 241.074 442.051 243.358 441.001L244.271 440.581L242.895 437.629L241.993 438.04C240.711 438.624 239.438 439.169 238.145 439.724C237.157 440.147 236.158 440.576 235.134 441.03L234.247 441.423L235.467 444.415ZM214.758 450.805L215.7 450.669V449.27L215.359 449.371L215.02 448.222L214.058 448.509C211.705 449.214 209.275 449.879 206.884 450.466L205.897 450.708L206.732 453.886L207.719 453.598C208.863 453.264 210.013 452.951 211.17 452.637L211.346 452.589C212.559 452.259 213.778 451.927 214.985 451.568L214.758 450.805ZM214.501 450.669C214.243 450.745 213.984 450.82 213.724 450.894C212.79 451.16 211.849 451.416 210.905 451.673C210.071 451.899 209.235 452.127 208.4 452.362C208.079 452.453 207.758 452.545 207.438 452.638L207.123 451.437C207.445 451.358 207.769 451.277 208.093 451.195C209.86 450.748 211.64 450.261 213.386 449.751C213.707 449.657 214.027 449.563 214.345 449.467L214.684 450.615C214.69 450.613 214.695 450.611 214.7 450.61V450.669L214.684 450.615C214.623 450.633 214.562 450.651 214.501 450.669ZM249.282 438.223L250.175 437.777C252.433 436.65 254.694 435.482 256.899 434.273L257.768 433.796L256.23 430.931L255.345 431.416C253.167 432.611 250.948 433.767 248.726 434.886L247.835 435.335L249.282 438.223ZM200.144 454.589L201.097 454.49V453.131L200.845 453.186L200.612 452.076L199.627 452.292C197.212 452.821 194.737 453.311 192.298 453.763L191.322 453.943L191.895 457.171L192.915 456.943C194.412 456.608 195.907 456.29 197.403 455.972C198.372 455.766 199.341 455.559 200.31 455.349L200.144 454.589ZM199.551 454.49C199.4 454.522 199.248 454.555 199.096 454.588C198.467 454.723 197.837 454.857 197.205 454.991C196.03 455.242 194.851 455.492 193.674 455.751C193.348 455.822 193.022 455.894 192.697 455.967L192.48 454.747L192.48 454.746C194.599 454.353 196.749 453.931 198.863 453.48C199.19 453.41 199.516 453.34 199.841 453.269L200.073 454.377C200.081 454.375 200.089 454.373 200.097 454.372V454.49L200.073 454.377C199.9 454.414 199.726 454.452 199.551 454.49ZM262.649 431.032L263.495 430.536C265.661 429.267 267.823 427.921 269.939 426.579L270.781 426.045L269.037 423.28L268.188 423.832C266.113 425.18 263.976 426.472 261.827 427.751L260.957 428.269L262.649 431.032ZM185.293 457.316L186.257 457.247V455.916L186.08 455.941L185.928 454.874L184.937 455.016C182.482 455.369 179.989 455.683 177.537 455.937L176.55 456.04L176.861 459.301L177.891 459.164C179.404 458.962 180.94 458.729 182.456 458.499C183.45 458.348 184.436 458.198 185.399 458.06L185.293 457.316ZM184.257 457.216C184.252 457.217 184.248 457.217 184.243 457.218C183.594 457.314 182.943 457.413 182.289 457.512C181.113 457.691 179.93 457.871 178.75 458.037C178.419 458.083 178.088 458.129 177.758 458.173L177.64 456.932C180.03 456.684 182.457 456.38 184.85 456.039C184.927 456.028 185.003 456.017 185.08 456.006L185.232 457.07L185.232 457.073C185.241 457.072 185.249 457.071 185.257 457.07V457.247L185.232 457.073C184.908 457.12 184.583 457.168 184.257 457.216ZM275.467 422.839L276.282 422.253C277.003 421.735 277.757 421.202 278.523 420.662C279.823 419.744 281.155 418.803 282.412 417.872L283.208 417.282L281.299 414.656L280.487 415.264C278.515 416.74 276.563 418.18 274.422 419.58L273.55 420.149L275.467 422.839ZM171.259 456.339L170.196 456.407C167.72 456.564 165.208 456.681 162.756 456.74L161.78 456.763V460.033L162.812 460C165.249 459.92 167.785 459.802 170.322 459.643L170.259 458.645C168.078 458.781 165.897 458.888 163.78 458.966C163.445 458.978 163.112 458.989 162.78 459V457.74C164.917 457.688 167.098 457.593 169.259 457.466C169.593 457.446 169.927 457.426 170.259 457.405V458.645H171.259V456.339ZM287.634 413.94L288.415 413.324C290.397 411.761 292.384 410.135 294.274 408.487L295.03 407.828L292.903 405.402L292.155 406.014C291.253 406.752 290.4 407.469 289.56 408.176C288.511 409.058 287.481 409.924 286.399 410.794L285.623 411.419L287.634 413.94ZM156.143 456.854L155.179 456.819C152.725 456.729 150.277 456.509 147.846 456.159L146.855 456.016L146.389 459.273L147.419 459.384C149.816 459.641 152.385 459.88 155.099 459.999L155.139 459.079H156.143V456.854ZM155.143 459C154.807 458.985 154.474 458.969 154.143 458.95C152.19 458.843 150.313 458.677 148.521 458.494C148.186 458.46 147.854 458.425 147.526 458.389L147.667 457.399L147.703 457.149C147.737 457.154 147.772 457.159 147.806 457.163C150.238 457.51 152.687 457.729 155.143 457.818V459ZM299.143 404.146L299.88 403.465C301.724 401.764 303.567 400.003 305.351 398.243L306.06 397.543L303.768 395.204L303.054 395.917C301.305 397.662 299.501 399.404 297.679 401.066L296.939 401.741L299.143 404.146ZM140.117 456.777L141.019 457.144L141.595 455.996L141.413 455.943L141.758 454.857L140.796 454.559C138.519 453.853 136.332 452.887 134.278 451.678L133.424 451.176L131.735 453.986L132.626 454.493C134.918 455.795 137.353 456.829 139.882 457.576L140.117 456.777ZM139.667 456.466C139.51 456.417 139.353 456.366 139.197 456.315C137.404 455.726 135.665 454.987 133.997 454.104C133.702 453.948 133.41 453.788 133.12 453.623L133.771 452.54C135.766 453.714 137.883 454.667 140.085 455.382C140.223 455.427 140.361 455.471 140.5 455.514L140.152 456.613C140.156 456.614 140.16 456.616 140.165 456.617L140.125 456.696L140.152 456.613C139.99 456.565 139.828 456.516 139.667 456.466ZM309.893 393.519L310.568 392.798C312.275 390.976 313.979 389.078 315.639 387.204L316.307 386.45L313.849 384.303L313.191 385.055C311.561 386.917 309.871 388.78 308.181 390.584L307.489 391.323L309.893 393.519ZM319.871 382.143L320.486 381.376C322.067 379.404 323.632 377.427 325.139 375.448L325.751 374.643L323.14 372.701L322.541 373.488C321.046 375.451 319.511 377.415 317.955 379.381L317.327 380.174L319.871 382.143ZM127.218 450.093L129.67 447.9L128.979 447.154C128.543 446.681 128.156 446.187 127.742 445.655C126.76 444.306 125.948 442.842 125.325 441.295L124.95 440.364L121.929 441.591L122.307 442.518C123.037 444.311 123.984 446.008 125.126 447.572C125.571 448.187 126.047 448.779 126.552 449.345L127.218 450.093ZM126.943 446.257L126.944 446.258C127.266 446.672 127.588 447.085 127.938 447.489C128.038 447.605 128.14 447.719 128.245 447.833L127.298 448.68C127.076 448.431 126.86 448.177 126.65 447.918C126.404 447.614 126.166 447.303 125.936 446.986C125.038 445.756 124.266 444.44 123.631 443.059C123.492 442.756 123.359 442.451 123.233 442.142C123.233 442.142 123.233 442.141 123.233 442.141L123.235 442.14L124.397 441.668C124.413 441.707 124.429 441.746 124.445 441.786C125.094 443.371 125.933 444.872 126.943 446.257ZM329.11 370.02L329.685 369.186C330.736 367.663 331.787 366.099 332.8 364.533L333.343 363.693L330.591 361.913L330.05 362.765C329.064 364.32 328.092 365.833 327.026 367.302L326.434 368.12L329.11 370.02ZM123.7 435.48L123.618 434.495C123.42 432.122 123.497 429.734 123.847 427.379L123.995 426.384L120.77 425.924L120.625 426.909C120.243 429.515 120.161 432.155 120.381 434.78L120.466 435.787L123.7 435.48ZM125.204 421.354L125.537 420.417C126.345 418.141 127.351 415.94 128.543 413.84L129.042 412.96L126.184 411.381L125.697 412.244C124.418 414.51 123.337 416.882 122.468 419.334L122.132 420.281L125.204 421.354ZM131.987 408.511L132.561 407.739C133.903 405.933 135.424 404.064 137.223 402.035L137.891 401.281L135.434 399.135L134.776 399.884C132.936 401.978 131.347 403.863 129.933 405.879L129.352 406.706L131.987 408.511ZM141.659 397.291L144.635 394.167C144.635 394.166 144.636 394.165 144.637 394.165C144.94 393.85 145.256 393.531 145.578 393.205C146.243 392.531 146.934 391.833 147.582 391.106L148.231 390.376L145.868 388.169L142.284 391.916L142.283 391.917L139.304 395.043L141.659 397.291ZM143.914 393.474C144.237 393.138 144.564 392.807 144.892 392.476C145.547 391.814 146.204 391.149 146.835 390.441L145.908 389.574L143.007 392.607L140.717 395.01L141.625 395.876L143.914 393.474ZM151.979 386.328L152.597 385.627C154.353 383.635 155.956 381.636 157.363 379.631L157.928 378.824L155.302 376.923L154.719 377.754C153.36 379.691 151.823 381.634 150.143 383.584L149.453 384.384L151.979 386.328ZM161.005 373.962L161.483 373.103C162.746 370.835 163.813 368.463 164.671 366.014L165.002 365.069L161.933 363.997L161.6 364.936C160.794 367.216 159.8 369.425 158.629 371.541L158.138 372.429L161.005 373.962ZM166.331 359.376L166.456 358.383C166.642 356.905 166.717 355.414 166.681 353.924C166.663 352.771 166.574 351.62 166.415 350.478L166.278 349.5L163.055 349.909L163.19 350.909C163.329 351.928 163.411 352.955 163.438 353.984C163.453 355.32 163.383 356.657 163.227 357.985L163.113 358.968L166.331 359.376ZM164.438 353.965C164.415 353.068 164.351 352.172 164.245 351.281C164.225 351.112 164.204 350.943 164.181 350.774L164.183 350.774L165.424 350.617C165.424 350.617 165.424 350.616 165.424 350.617C165.456 350.843 165.485 351.07 165.511 351.297C165.523 351.401 165.534 351.505 165.544 351.609C165.624 352.385 165.669 353.165 165.681 353.945C165.708 355.053 165.672 356.161 165.572 357.264L165.59 357.266L165.464 358.258L165.448 358.256L164.472 358.133C164.472 358.134 164.472 358.133 164.472 358.133L164.221 358.101C164.381 356.728 164.453 355.347 164.438 353.965ZM161.267 345.189L164.74 343.779L164.355 342.849C163.346 340.408 162.04 338.1 160.465 335.978L159.869 335.174L157.249 337.122L157.859 337.926C159.233 339.739 160.378 341.714 161.267 343.807V345.189ZM161.904 342.771C162.029 343.047 162.15 343.325 162.267 343.605V343.703L163.431 343.231C163.304 342.923 163.171 342.616 163.034 342.313C162.256 340.59 161.323 338.941 160.245 337.386C160.055 337.113 159.861 336.842 159.662 336.574L158.657 337.321L158.656 337.322C158.762 337.462 158.866 337.603 158.97 337.744C160.116 339.317 161.1 341.001 161.904 342.771ZM152.544 334.91L155.747 330.915L154.95 330.291C152.885 328.675 150.657 327.278 148.301 326.124L147.405 325.684L145.963 328.613L146.88 329.048C148.878 329.994 150.776 331.138 152.544 332.461V334.91ZM152.793 331.402C151.341 330.344 149.807 329.402 148.206 328.585C147.909 328.434 147.61 328.287 147.309 328.144L147.861 327.021C147.899 327.04 147.938 327.059 147.976 327.078C148.236 327.207 148.496 327.339 148.753 327.474C150.423 328.349 152.022 329.352 153.538 330.473C153.806 330.671 154.071 330.873 154.334 331.079C154.334 331.079 154.333 331.078 154.334 331.079L153.544 332.064V331.965C153.297 331.774 153.046 331.586 152.793 331.402ZM140.337 325.621L141.361 325.769L142 323.605L141.037 323.324C138.569 322.604 136.063 322.017 133.532 321.566L132.544 321.39L131.98 324.615L132.978 324.778C135.391 325.172 137.779 325.697 140.134 326.35L140.337 325.621ZM139.463 325.133C137.7 324.671 135.919 324.28 134.125 323.96C133.797 323.901 133.468 323.845 133.139 323.791L133.357 322.551C133.685 322.609 134.012 322.67 134.34 322.733C136.174 323.087 137.994 323.513 139.795 324.011C140.115 324.099 140.434 324.19 140.753 324.283C140.754 324.283 140.756 324.283 140.757 324.284L140.402 325.485V325.387C140.089 325.3 139.776 325.216 139.463 325.133ZM125.722 322.782L126.733 322.839L126.982 320.607L125.991 320.494C123.392 320.197 120.836 319.959 118.441 319.762L117.44 319.679L117.182 322.975L118.218 323.018C120.557 323.115 123.078 323.33 125.625 323.623L125.722 322.782ZM124.756 322.52C122.882 322.319 121.029 322.163 119.259 322.067C118.923 322.049 118.59 322.033 118.26 322.019L118.359 320.758C118.688 320.786 119.02 320.813 119.355 320.842C121.449 321.022 123.648 321.232 125.877 321.487C125.877 321.487 125.877 321.487 125.877 321.487L125.739 322.728V322.629C125.411 322.592 125.083 322.555 124.756 322.52ZM110.746 321.396L111.756 321.444L111.969 319.213L110.979 319.113C108.44 318.858 105.941 318.583 103.542 318.289L102.554 318.167L102.138 321.431L103.178 321.518C104.947 321.668 106.876 321.863 108.834 322.062C109.442 322.123 110.052 322.185 110.662 322.246L110.746 321.396ZM109.775 321.152C109.497 321.124 109.218 321.095 108.94 321.067C107.34 320.905 105.755 320.745 104.259 320.609C103.922 320.579 103.589 320.55 103.262 320.522L103.42 319.281C103.421 319.281 103.422 319.281 103.423 319.282C105.83 319.577 108.335 319.853 110.879 320.108L110.761 321.349V321.251C110.433 321.218 110.104 321.185 109.775 321.152ZM96.3397 322.364L97.1266 317.415L96.1255 317.268C93.5918 316.895 91.1196 316.484 88.7677 316.034L87.788 315.847L87.1624 319.073L88.1962 319.227C89.3829 319.403 90.6004 319.599 91.837 319.798L91.9551 319.817C92.998 319.986 94.0539 320.156 95.1089 320.318L96.3397 322.364ZM94.8082 319.259C93.9093 319.12 93.0101 318.975 92.1171 318.83C91.1796 318.679 90.2489 318.529 89.3326 318.387C89.0007 318.336 88.6708 318.286 88.343 318.237L88.5798 317.016C90.6403 317.41 92.7903 317.775 94.9911 318.109C95.3197 318.159 95.6494 318.208 95.9801 318.257L95.7828 319.498L95.7236 319.399C95.4187 319.353 95.1134 319.307 94.8082 319.259ZM80.9142 316.827L81.9379 316.941L82.4339 314.748L81.4626 314.525C78.988 313.957 76.5527 313.349 74.216 312.722L73.2599 312.465L72.3773 315.626L73.3946 315.863C74.8879 316.211 76.4183 316.574 77.9753 316.943C78.8861 317.159 79.8061 317.377 80.733 317.596L80.9142 316.827ZM80.0104 316.397C79.4073 316.255 78.8069 316.112 78.2101 315.971C76.988 315.681 75.7809 315.395 74.596 315.117C74.2694 315.04 73.9445 314.964 73.6214 314.889L73.9568 313.688C73.9569 313.688 73.9567 313.688 73.9568 313.688C76.3051 314.318 78.7523 314.929 81.2387 315.5L81.2385 315.501L80.9625 316.721V316.622C80.6445 316.547 80.327 316.472 80.0104 316.397ZM66.294 312.927L67.3472 313.099L68.0607 310.963L67.1044 310.65C64.7183 309.869 62.3689 309.009 60.1346 308.129L59.2152 307.767L57.9598 310.846L58.991 311.174C60.1239 311.535 61.2834 311.93 62.4709 312.337L62.6864 312.411C63.802 312.793 64.9413 313.183 66.09 313.556L66.294 312.927ZM65.5021 312.31C64.6644 312.031 63.8323 311.746 63.0083 311.464C62.0768 311.145 61.1555 310.829 60.2482 310.531C59.9285 310.425 59.6105 310.322 59.2944 310.221L59.7681 309.059C59.7682 309.059 59.7679 309.059 59.7681 309.059C61.7214 309.829 63.7643 310.584 65.8444 311.285C66.1599 311.391 66.4763 311.496 66.7934 311.6L66.3987 312.782V312.605C66.0992 312.507 65.8003 312.409 65.5021 312.31ZM52.2067 309.88L54.2318 305.613L53.3313 305.183C51.0826 304.11 48.874 302.959 46.7842 301.77L45.9241 301.28L44.2528 304.147L45.2183 304.62C46.2757 305.138 47.368 305.685 48.4801 306.243L48.4909 306.248C49.4817 306.745 50.4878 307.249 51.4926 307.744L52.2067 309.88ZM51.5276 306.646C50.6591 306.216 49.7903 305.781 48.9304 305.35C48.1293 304.948 47.3358 304.551 46.5574 304.165C46.2552 304.015 45.9554 303.867 45.6582 303.722L46.2895 302.639C46.2899 302.639 46.2905 302.639 46.2909 302.639C48.4004 303.84 50.6281 305.001 52.8952 306.083C52.897 306.084 52.8988 306.085 52.9005 306.085L52.8986 306.09L52.3678 307.208L52.3086 307.031C52.0484 306.903 51.788 306.775 51.5276 306.646ZM38.2446 302.878L41.3736 298.405L40.539 297.835C38.5175 296.453 36.5689 294.969 34.7007 293.387L33.9338 292.737L31.8037 295.278L32.6422 295.913C34.388 297.233 36.2858 298.668 38.2446 300.047V302.878ZM38.5097 299.01C36.9688 297.917 35.4669 296.793 34.0442 295.719C33.7751 295.516 33.5087 295.314 33.2455 295.115L34.0545 294.15C34.2338 294.302 34.4138 294.453 34.5945 294.603C36.0671 295.825 37.5879 296.989 39.153 298.09C39.4256 298.282 39.6995 298.472 39.9747 298.66L39.2446 299.704V299.527C38.9988 299.355 38.7538 299.183 38.5097 299.01ZM26.6607 292.348L29.9652 289.123L29.2622 288.407C27.5503 286.664 25.9336 284.831 24.4195 282.914L23.804 282.135L21.226 284.142L21.8737 284.935C23.3776 286.776 24.9754 288.538 26.6607 290.215V292.348ZM27.6607 289.975V289.797C27.4531 289.593 27.2468 289.388 27.0418 289.181C25.7347 287.863 24.482 286.492 23.2868 285.072C23.0721 284.817 22.8592 284.561 22.6482 284.302L23.6342 283.535C23.6343 283.535 23.6351 283.535 23.6353 283.535C25.0778 285.361 26.612 287.112 28.2318 288.783C28.3371 288.892 28.4427 289 28.5487 289.108L27.6607 289.975ZM17.2475 279.967L20.7119 277.79L20.1473 276.936C18.8733 275.01 17.6487 272.8 16.4909 270.567L16.0377 269.693L13.1395 271.139L13.612 272.043C14.7252 274.17 15.9383 276.245 17.2475 278.258V279.967ZM18.2475 278.157V277.96C18.0952 277.728 17.9441 277.495 17.7943 277.261C16.7931 275.697 15.8503 274.096 14.9677 272.462C14.8092 272.169 14.6526 271.875 14.4981 271.579L15.6032 271.028C16.6049 272.959 17.6651 274.891 18.7711 276.647C18.9506 276.932 19.1313 277.213 19.3132 277.488L18.2475 278.157ZM10.3208 266.21L13.7896 264.802L13.411 263.874C13.0893 263.086 12.772 262.283 12.4473 261.46L12.4434 261.45C12.1199 260.631 11.7893 259.794 11.4437 258.946C11.356 258.71 11.2682 258.47 11.1809 258.231C11.0232 257.8 10.8668 257.372 10.7139 256.978L10.3696 256.09L7.32364 257.103L7.65173 258.058L7.65512 258.068C7.8902 258.752 8.12997 259.45 8.39044 260.15L8.4064 260.193L8.42624 260.234C9.07562 261.586 9.69397 263.109 10.3208 264.716V266.21ZM12.3208 263.848C12.0535 263.186 11.7883 262.514 11.5198 261.834C11.1921 261.004 10.8594 260.162 10.5117 259.309C10.4176 259.056 10.3262 258.806 10.2364 258.56C10.0815 258.136 9.93161 257.726 9.78171 257.34C9.78171 257.34 9.78171 257.34 9.78171 257.34L8.59747 257.733L8.59802 257.735C8.59818 257.735 8.59833 257.736 8.59848 257.736C8.70639 258.05 8.8143 258.364 8.92407 258.678C9.0549 259.053 9.18835 259.427 9.32764 259.801C9.91302 261.02 10.47 262.366 11.0227 263.767C11.1222 264.019 11.2215 264.273 11.3208 264.528V264.725L12.4824 264.254L12.4852 264.252C12.4303 264.118 12.3755 263.983 12.3208 263.848ZM8.91751 250.808L8.65424 249.847C8.02676 247.557 7.41849 245.129 6.84937 242.622L6.62833 241.649L3.45538 242.364L3.67511 243.339C4.25153 245.898 4.88702 248.375 5.52103 250.708L5.78482 251.679L8.91751 250.808ZM5.51849 236.074L5.33804 235.099C4.86734 232.554 4.47516 230.089 4.16165 227.761L4.0271 226.763L0.804901 227.222L0.936157 228.204C1.25409 230.584 1.65179 233.104 2.14902 235.705L2.33719 236.689L5.51849 236.074ZM3.44717 221.385L3.37891 220.4C3.20297 217.864 3.12521 215.392 3.16412 213.041L3.18097 212.025H-9.15527e-05V213.043C-9.15527e-05 215.455 -9.15527e-05 218.027 0.200104 220.644L0.276886 221.648L3.44717 221.385ZM3.51187 206.718L3.63086 205.718C3.9187 203.297 4.34674 200.896 4.9129 198.525L5.14374 197.558L2.00528 196.788L1.76572 197.757C1.14978 200.249 0.694 202.778 0.401154 205.328L0.288361 206.31L3.51187 206.718ZM6.76889 192.536L7.1275 191.57C7.24527 191.253 7.36691 190.969 7.49915 190.66C7.58206 190.467 7.66916 190.264 7.76205 190.037C8.51248 188.328 9.35706 186.662 10.2919 185.046L10.7989 184.17L7.97678 182.583L7.47928 183.427C6.46808 185.144 5.56668 186.923 4.78033 188.754C4.53778 189.299 4.31625 189.841 4.10144 190.368L4.09979 190.371L3.72113 191.299L6.76889 192.536ZM5.69662 189.154C6.46683 187.361 7.34982 185.618 8.34055 183.935C8.34067 183.935 8.34042 183.936 8.34055 183.935L9.42639 184.545C9.25943 184.834 9.09528 185.124 8.93399 185.416C8.17221 186.793 7.47388 188.205 6.84125 189.646C6.76083 189.843 6.6777 190.038 6.59488 190.231C6.57706 190.273 6.55927 190.315 6.5415 190.356C6.41898 190.643 6.29849 190.93 6.18997 191.222L5.0256 190.749C5.02634 190.748 5.0271 190.746 5.02783 190.744C5.15289 190.438 5.27798 190.131 5.40686 189.825C5.50095 189.601 5.59705 189.378 5.69662 189.154ZM153.624 137.675L154.549 137.326C156.915 136.433 159.282 135.46 161.59 134.428L162.504 134.019L161.17 131.049L160.257 131.461C158.011 132.475 155.701 133.412 153.386 134.294L152.443 134.652L153.624 137.675ZM148.128 138.937L147.33 136.423L146.383 136.715C144.028 137.439 141.626 138.121 139.251 138.665L138.26 138.892L139.031 142.023L139.98 141.819C142.408 141.298 144.886 140.6 147.327 139.847L147.735 139.721L148.128 138.937ZM167.56 131.588L168.445 131.136C170.119 130.281 171.791 129.367 173.42 128.435L173.425 128.432L176.008 126.933L174.314 124.166L171.791 125.618C170.209 126.534 168.585 127.413 166.958 128.254L166.069 128.714L167.56 131.588ZM133.617 143.207L133.023 140.143L132.042 140.332C129.706 140.783 127.232 141.214 124.698 141.606L123.721 141.757L124.18 144.967L125.171 144.825C127.656 144.468 130.181 144.031 132.547 143.555L132.607 143.543L133.617 143.207ZM118.55 145.751L118.141 142.535L116.9 142.674C114.685 142.921 112.33 143.185 109.72 143.43L108.725 143.524L109.031 146.781L110.031 146.682C112.796 146.406 115.251 146.149 117.551 145.872L118.55 145.751ZM180.606 123.713L181.395 123.095C183.455 121.479 185.343 119.656 187.029 117.654L187.669 116.894L185.202 114.791L184.553 115.556C183.004 117.386 181.274 119.055 179.39 120.537L178.606 121.154L180.606 123.713ZM13.7654 179.86L14.3885 179.087C15.9221 177.185 17.5633 175.372 19.3044 173.657L20.023 172.95L17.7244 170.655L17.0181 171.341C15.1707 173.134 13.4464 175.049 11.8566 177.074L11.2424 177.856L13.7654 179.86ZM103.503 147.285L103.198 144.033L93.7063 144.856L94.0117 148.108L103.503 147.285ZM87.4747 147.715C87.4616 147.716 87.4484 147.718 87.4352 147.719C87.3574 147.726 87.2798 147.733 87.2024 147.741C86.9456 147.765 86.6915 147.789 86.44 147.813C84.4877 148.001 82.6885 148.19 80.9494 148.388C80.6163 148.426 80.2854 148.464 79.956 148.503L79.9559 148.502L79.8179 147.262C82.107 146.986 84.5738 146.73 87.2971 146.455L87.4352 147.715H87.4747ZM87.5209 147.706L87.5677 148.711C84.832 148.966 82.4126 149.221 80.0727 149.496L79.0735 149.613L78.7144 146.388L79.6983 146.269C81.9978 145.992 84.4729 145.735 87.1963 145.46L88.1831 145.36L88.4293 147.606L87.5209 147.706ZM190.769 111.802L191.159 110.822C191.834 109.129 192.28 107.354 192.487 105.544C192.487 105.544 192.487 105.543 192.487 105.542L191.493 105.429M190.23 110.451C190.354 110.141 190.47 109.827 190.578 109.51L190.23 110.451ZM189.321 110.031L190.23 110.451L189.321 110.031ZM189.321 110.031L189.164 109.959C189.772 108.458 190.17 106.881 190.349 105.272C190.403 104.743 190.436 104.212 190.447 103.681C190.453 103.41 190.453 103.14 190.447 102.869H191.612C191.618 103.153 191.618 103.437 191.612 103.721C191.61 103.77 191.609 103.82 191.608 103.869M189.354 105.166C189.186 106.682 188.81 108.169 188.237 109.584L187.88 110.467L190.769 111.802M24.0303 169.478L24.8168 168.873C26.7574 167.381 28.7717 165.986 30.8521 164.695L31.6966 164.171L30.0012 161.402L29.1464 161.932C26.9264 163.31 24.8076 164.786 22.8294 166.302L22.0279 166.916L24.0303 169.478ZM72.5755 149.507C72.5623 149.509 72.5492 149.511 72.536 149.513C72.3902 149.534 72.2447 149.555 72.0995 149.577C71.915 149.604 71.7311 149.632 71.5476 149.66C69.6861 149.943 67.876 150.259 66.1174 150.577C66.0202 150.595 65.9232 150.612 65.8264 150.63L65.1357 150.768L64.8989 149.547L65.5896 149.409C67.7404 148.995 70.0099 148.621 72.3383 148.267C72.3385 148.267 72.3382 148.267 72.3383 148.267L72.536 149.507H72.5755ZM72.6458 149.49L72.7178 150.497C70.4109 150.829 68.1785 151.22 66.0138 151.612C66.0108 151.613 66.0079 151.613 66.0049 151.614L64.3454 151.945L63.7279 148.761L65.3938 148.428L65.4007 148.427C67.5691 148.01 69.8525 147.634 72.1882 147.278L73.1703 147.128L73.5236 149.35L72.6458 149.49ZM36.3853 161.549L37.2867 161.095C39.45 160.006 41.7159 158.992 44.0281 158.034L44.9465 157.653L43.7203 154.644L42.7943 155.022C40.4142 155.992 38.0712 157.01 35.8191 158.194L34.9573 158.647L36.3853 161.549ZM57.8933 152.422C57.8802 152.426 57.867 152.429 57.8538 152.432C57.5316 152.516 57.21 152.6 56.8891 152.686C54.7869 153.248 52.7141 153.867 50.6706 154.53L50.2759 153.348C50.3484 153.324 50.4211 153.299 50.4938 153.275C50.7368 153.194 50.9808 153.114 51.2257 153.035C53.2809 152.371 55.4022 151.767 57.5381 151.221L57.8538 152.422H57.8933ZM58.0147 152.38L58.1428 153.391C55.7177 154.015 53.3299 154.718 50.9791 155.481L50.0362 155.787L49.011 152.717L49.9578 152.4C52.3327 151.603 54.8037 150.887 57.2906 150.252L58.2529 150.006L58.821 152.168L58.0147 152.38ZM188.703 95.8607L188.869 96.7785H190.388L190.213 96.345L191.333 95.9284L190.965 94.9826C190.012 92.5341 188.794 90.1971 187.331 88.0135L186.779 87.1888L184.061 88.9797L184.625 89.8173C185.962 91.8058 187.087 93.9289 187.98 96.1515L188.703 95.8607ZM188.869 95.6809C188.764 95.4231 188.656 95.1666 188.546 94.9115C188.538 94.8938 188.531 94.8761 188.523 94.8584C187.76 93.1056 186.855 91.4174 185.818 89.8106C185.698 89.6258 185.577 89.442 185.454 89.2593L186.5 88.57C186.597 88.7148 186.693 88.8603 186.788 89.0065C186.875 89.14 186.96 89.2741 187.045 89.4087C188.049 91.0055 188.923 92.6808 189.657 94.4181C189.786 94.7252 189.912 95.0343 190.033 95.3452L188.903 95.7657C188.904 95.77 188.906 95.7742 188.908 95.7785H188.869L188.903 95.7657C188.891 95.7374 188.88 95.7092 188.869 95.6809ZM180.881 84.7801L183.335 82.6373L182.397 81.5677C180.822 79.7772 179.15 78.0097 177.482 76.3249L176.776 75.6115L174.468 77.9148L175.177 78.6226C176.818 80.2602 178.421 81.9771 179.947 83.7145M179.947 83.7145L180.881 84.7801L179.947 83.7145ZM180.699 83.0552C179.244 81.3986 177.719 79.7595 176.156 78.1879C176.065 78.0966 175.974 78.0056 175.883 77.9148L175.885 77.9128L176.772 77.0285C177.005 77.2646 177.239 77.5023 177.473 77.7415C178.759 79.0587 180.037 80.4184 181.261 81.793C181.39 81.9379 181.518 82.0829 181.646 82.2281L181.922 82.5432L180.975 83.3704L180.699 83.0552ZM172.672 71.7588L171.888 71.102C169.906 69.4402 167.922 67.8357 165.935 66.3091L165.141 65.6989L163.14 68.3111L163.967 68.9144C165.991 70.3906 167.902 71.9473 169.76 73.5674L170.417 72.8137C168.789 71.3941 167.116 70.0189 165.36 68.7013C165.094 68.5017 164.826 68.3034 164.556 68.1065L165.326 67.102C165.326 67.102 165.326 67.102 165.326 67.102C165.589 67.3046 165.853 67.5086 166.117 67.714C167.57 68.8464 169.024 70.0202 170.478 71.2274C170.734 71.44 170.99 71.6537 171.246 71.8683L170.417 72.8137L171.169 73.473L172.672 71.7588ZM159.114 64.7932L160.657 62.4621L159.814 61.912C157.685 60.5216 155.496 59.1911 153.287 57.9402L152.416 57.4467L150.829 60.2577L151.676 60.7557C153.778 61.9911 155.896 63.2829 157.973 64.6318L158.221 64.7932H159.114ZM236.013 443.106L235.54 441.944C236.534 441.503 237.528 441.076 238.518 440.652C239.826 440.091 241.126 439.533 242.407 438.95L242.94 440.092C242.638 440.231 242.334 440.37 242.03 440.507C240.352 441.267 238.646 442.005 236.936 442.721C236.629 442.85 236.321 442.978 236.013 443.106ZM249.176 435.779C251.109 434.806 253.041 433.804 254.948 432.772C255.242 432.613 255.534 432.453 255.826 432.293L256.418 433.396C254.518 434.438 252.573 435.451 250.622 436.434C250.563 436.464 250.504 436.493 250.445 436.523C250.206 436.643 249.967 436.763 249.728 436.882L249.727 436.88L249.176 435.779ZM262.99 429.674C265.141 428.413 267.292 427.074 269.403 425.735L268.732 424.671C268.453 424.852 268.173 425.033 267.891 425.212C266.347 426.198 264.774 427.154 263.197 428.098C262.911 428.269 262.625 428.44 262.339 428.61L262.99 429.674ZM274.968 420.417C274.968 420.417 274.968 420.417 274.968 420.417C275.249 420.233 275.527 420.049 275.802 419.864C277.363 418.814 278.831 417.744 280.285 416.662C280.552 416.463 280.819 416.264 281.086 416.064L281.816 417.068C280.566 417.994 279.254 418.921 277.963 419.833C277.475 420.178 276.99 420.52 276.512 420.86C276.238 421.054 275.967 421.248 275.699 421.441L274.968 420.417ZM287.796 412.539C289.505 411.191 291.215 409.798 292.861 408.387C293.114 408.169 293.367 407.951 293.617 407.733L293.614 407.73L292.788 406.788C292.788 406.788 292.788 406.788 292.788 406.788C291.915 407.502 291.065 408.217 290.221 408.927C289.158 409.82 288.105 410.705 287.028 411.572C287.027 411.573 287.027 411.573 287.026 411.574L287.796 412.539ZM298.353 401.805C298.508 401.663 298.663 401.521 298.818 401.379C300.249 400.061 301.667 398.698 303.051 397.33C303.288 397.095 303.525 396.86 303.76 396.625L304.646 397.529L304.648 397.531C303.109 399.05 301.525 400.57 299.935 402.051C299.691 402.278 299.446 402.505 299.202 402.73L298.353 401.805ZM309.593 390.536C309.366 390.781 309.139 391.025 308.912 391.267C308.912 391.267 308.911 391.267 308.912 391.267L309.839 392.115C311.31 390.544 312.781 388.914 314.227 387.289C314.449 387.039 314.67 386.79 314.89 386.541L313.943 385.714C312.525 387.334 311.062 388.954 309.593 390.536ZM319.359 379.217C319.153 379.479 318.946 379.74 318.739 380.001C318.739 380.001 318.739 380.002 318.739 380.001L319.705 380.75C319.705 380.75 319.705 380.75 319.705 380.75C321.071 379.045 322.424 377.341 323.735 375.636C323.939 375.371 324.141 375.106 324.343 374.842L323.337 374.093C322.036 375.801 320.706 377.509 319.359 379.217ZM328.415 367.074C328.225 367.347 328.032 367.619 327.836 367.889L328.862 368.618C329.051 368.344 329.24 368.069 329.428 367.793C330.097 366.815 330.762 365.823 331.415 364.828C331.598 364.548 331.78 364.269 331.96 363.99L330.895 363.3C330.716 363.582 330.537 363.864 330.358 364.144C329.726 365.132 329.087 366.11 328.415 367.074ZM122.621 434.578C122.427 432.254 122.489 429.917 122.804 427.607C122.821 427.482 122.839 427.357 122.858 427.231L121.615 427.054C121.602 427.141 121.589 427.229 121.577 427.316C121.544 427.559 121.513 427.802 121.484 428.046C121.266 429.921 121.208 431.812 121.309 433.698C121.327 434.031 121.35 434.364 121.378 434.696L121.379 434.696L122.621 434.578ZM124.595 420.081C125.314 418.056 126.185 416.09 127.203 414.198C127.356 413.912 127.513 413.628 127.673 413.346L127.672 413.345L126.568 412.736C126.433 412.975 126.3 413.215 126.17 413.456C126.142 413.508 126.114 413.56 126.086 413.612C125.201 415.266 124.422 416.976 123.755 418.73C123.637 419.041 123.522 419.354 123.411 419.668L124.595 420.082C124.595 420.082 124.595 420.081 124.595 420.081ZM131.336 405.641C131.137 405.91 130.943 406.18 130.752 406.453L131.758 407.142C132.952 405.537 134.282 403.886 135.815 402.123C136.031 401.875 136.25 401.624 136.475 401.371L135.527 400.544C133.946 402.343 132.57 403.966 131.336 405.641ZM151.55 383.475C151.336 383.729 151.119 383.983 150.9 384.236L151.847 384.965C153.584 382.996 155.163 381.026 156.544 379.057L155.538 378.328C155.348 378.599 155.154 378.871 154.957 379.142C153.908 380.586 152.768 382.03 151.55 383.475ZM160.609 372.616C161.682 370.69 162.611 368.686 163.386 366.623C163.503 366.311 163.617 365.998 163.727 365.683L162.547 365.271L162.543 365.27C162.543 365.27 162.543 365.271 162.543 365.271C161.829 367.288 160.972 369.251 159.978 371.145C159.824 371.44 159.666 371.733 159.504 372.025C159.505 372.025 159.504 372.025 159.504 372.025L160.609 372.616ZM7.68964 250.111C7.0582 247.806 6.44641 245.364 5.87418 242.844L4.65067 243.119C4.72415 243.446 4.79865 243.771 4.87396 244.094C5.3046 245.944 5.76306 247.747 6.22589 249.48C6.3125 249.805 6.39929 250.127 6.48605 250.446L7.68964 250.111C7.68958 250.11 7.6897 250.111 7.68964 250.111ZM4.35474 235.281C3.9473 233.078 3.59824 230.934 3.30762 228.885C3.26041 228.553 3.21472 228.222 3.17059 227.895L1.92734 228.072C2.20285 230.134 2.53851 232.301 2.9473 234.534C3.00705 234.86 3.06833 235.188 3.13123 235.517L4.35474 235.281ZM2.38132 220.47C2.22839 218.265 2.14862 216.104 2.15463 214.025C2.15561 213.689 2.15878 213.356 2.16428 213.025H0.999908V213.027C0.999908 213.358 0.999908 213.69 1.0004 214.025C1.00308 215.826 1.02029 217.685 1.13016 219.57C1.14951 219.902 1.17169 220.235 1.1972 220.568L2.38132 220.47ZM2.63788 205.6C2.63794 205.599 2.63803 205.598 2.63809 205.598C2.6767 205.273 2.71774 204.949 2.76129 204.626C3.04767 202.496 3.44116 200.383 3.94028 198.293L2.73651 197.997C2.72083 198.061 2.70529 198.124 2.68982 198.188C2.62637 198.448 2.56467 198.709 2.50476 198.97C2.01532 201.105 1.64474 203.265 1.39478 205.441C1.39471 205.441 1.39468 205.442 1.39462 205.442L2.63788 205.6ZM154.675 134.87C154.364 134.99 154.053 135.11 153.742 135.228L154.195 136.39C156.232 135.621 158.269 134.794 160.267 133.919C160.573 133.786 160.878 133.651 161.182 133.515L160.668 132.372C160.565 132.419 160.461 132.466 160.358 132.512C158.491 133.347 156.586 134.129 154.675 134.87ZM139.77 140.841C142.158 140.329 144.605 139.64 147.032 138.892L147.052 138.852L146.677 137.67C144.628 138.301 142.534 138.902 140.447 139.41C140.123 139.489 139.798 139.566 139.474 139.64L139.77 140.841ZM167.774 128.958C169.293 128.167 170.809 127.342 172.292 126.484L173.969 125.518L174.62 126.582L172.923 127.567C171.305 128.492 169.647 129.398 167.99 130.245L167.989 130.244L167.418 129.142C167.536 129.081 167.655 129.019 167.774 128.958ZM126.018 143.689C128.162 143.364 130.315 142.984 132.35 142.575L132.468 142.535L132.232 141.314C129.883 141.767 127.397 142.2 124.851 142.594L125.029 143.835C125.029 143.835 125.03 143.835 125.03 143.835C125.359 143.788 125.688 143.739 126.018 143.689ZM117.431 144.879C117.103 144.918 116.773 144.957 116.438 144.996C114.719 145.195 112.903 145.387 110.927 145.587C110.6 145.62 110.268 145.653 109.932 145.686L109.814 144.426C109.821 144.425 109.829 144.425 109.837 144.424C112.446 144.178 114.802 143.915 117.009 143.668L117.273 143.638L117.431 144.879ZM180.008 121.323C181.88 119.851 183.604 118.199 185.154 116.393C185.208 116.33 185.263 116.266 185.316 116.203L186.263 117.01C186.263 117.01 186.263 117.01 186.263 117.01C186.166 117.125 186.069 117.24 185.97 117.354C185.851 117.493 185.73 117.63 185.609 117.766C184.36 119.172 183.005 120.48 181.556 121.68C181.3 121.892 181.041 122.101 180.78 122.306C180.779 122.307 180.778 122.308 180.777 122.308L180.008 121.323ZM13.2676 176.91C13.1887 177.007 13.1102 177.104 13.0319 177.202C12.9014 177.364 12.7718 177.528 12.6431 177.691L13.61 178.459C14.9583 176.787 16.3886 175.183 17.8957 173.652C18.1292 173.415 18.3646 173.179 18.6018 172.946C18.6021 172.945 18.6024 172.945 18.6027 172.945L17.7146 172.059C16.1387 173.588 14.6539 175.208 13.2676 176.91ZM102.413 146.376L94.9145 147.026L94.7961 145.765L102.295 145.115L102.413 146.376ZM24.2353 166.492C23.967 166.692 23.7011 166.893 23.4378 167.095C23.4379 167.095 23.4377 167.095 23.4378 167.095L24.2072 168.08C26.174 166.568 28.2153 165.155 30.3236 163.846C30.324 163.846 30.3244 163.846 30.3247 163.846L29.6749 162.784L29.6736 162.782C29.3899 162.958 29.1077 163.136 28.8274 163.315C27.2353 164.333 25.6993 165.4 24.2353 166.492ZM36.2845 159.079C36.2846 159.079 36.2844 159.079 36.2845 159.079C38.2059 158.069 40.2022 157.178 42.2468 156.328C42.554 156.201 42.8623 156.074 43.1717 155.948L43.6453 157.11C41.6322 157.944 39.6487 158.822 37.7329 159.758C37.4326 159.904 37.1341 160.052 36.8373 160.202C36.8372 160.202 36.8374 160.202 36.8373 160.202L36.2845 159.079ZM152.183 59.8936C154.294 61.1344 156.426 62.4342 158.517 63.7932H158.577L159.267 62.7493C158.988 62.5672 158.709 62.3862 158.428 62.2062C156.863 61.2037 155.27 60.2346 153.663 59.3067C153.374 59.1399 153.084 58.9744 152.795 58.8103L152.183 59.8936Z" fill="white" fill-opacity="0.2"/>
<path fill-rule="evenodd" clip-rule="evenodd" d="M142.648 37.6621L144.93 55.8422L145.392 59.7191L142.37 56.4708C139.006 54.3933 135.496 52.2465 133.63 51.1317L123.763 75.2005L49.9607 0L166.772 16.7841L142.648 37.6621ZM134.013 50.1961C135.857 51.2949 139.454 53.4944 142.885 55.614L142.891 55.6177L143.01 55.6909L144.036 56.7938L144.036 56.7936L143.01 55.6908C138.866 53.1304 134.445 50.4321 133.143 49.6837L133.143 49.6838C133.355 49.8058 133.65 49.9796 134.013 50.1961ZM123.414 73.4165L123.414 73.4167L52.7461 1.41049L52.7463 1.41052L123.414 73.4165ZM55.5091 2.76951L162.073 18.0727L140.484 36.8423L140.484 36.8424L162.073 18.0727L55.5091 2.76945L55.5091 2.76951ZM122.999 71.5258L123 71.5259L133.656 45.6659L132.472 44.563L64.5276 8.87495L64.3104 8.75679L64.7051 7.87061L64.7049 7.87056L64.3102 8.75682L64.5274 8.87498L132.472 44.563L133.656 45.6659L122.999 71.5258ZM63.0819 9.05695L58.2945 4.17976L159.768 18.7519L140.281 35.6941L64.1769 6.59811L63.0819 9.05695ZM132.467 45.9254L131.888 45.386L64.0559 9.75688L63.4399 9.42169L122.652 69.7444L132.467 45.9254ZM140.345 52.8544C140.346 52.8545 140.346 52.8546 140.346 52.8547L139.872 52.3426L134.406 46.434L134.406 46.4341L140.345 52.8544ZM134.727 48.2756L134.773 48.3033L134.733 48.2605L134.727 48.2756ZM142.714 53.8195L142.714 53.8197L140.741 38.0635L72.6383 11.9869L72.6389 11.9872L140.74 38.0635L142.714 53.8195ZM135.555 44.8103L141.343 50.9187L139.823 38.7829L88.0547 18.9607L133.734 42.9718C133.904 43.0497 134.057 43.1622 134.182 43.3026L134.864 44.0423L135.555 44.8103Z" fill="white" fill-opacity="0.2"/>
</svg>
